<svg xmlns="http://www.w3.org/2000/svg" viewBox="0 0 750 500"><g id="freepik--Floor--inject-2"><path d="M720.29,444.72c0,.14-154.6.26-345.27.26s-345.31-.12-345.31-.26,154.57-.26,345.31-.26S720.29,444.57,720.29,444.72Z" style="fill:#263238"></path></g><g id="freepik--TV--inject-2"><path d="M497.76,325.47H447.87a3.91,3.91,0,0,1-3.91-3.91h0a3.91,3.91,0,0,1,3.91-3.91h49.89a3.91,3.91,0,0,1,3.91,3.91h0A3.91,3.91,0,0,1,497.76,325.47Z" style="fill:#FF725E"></path><path d="M494.25,317.44H444.37a3.93,3.93,0,0,1-3.92-3.92h0a3.92,3.92,0,0,1,3.92-3.91h49.88a3.92,3.92,0,0,1,3.92,3.91h0A3.93,3.93,0,0,1,494.25,317.44Z" style="fill:#455a64"></path><path d="M492,313.63c0,.14-8.83.26-19.72.26s-19.72-.12-19.72-.26,8.83-.26,19.72-.26S492,313.49,492,313.63Z" style="fill:#263238"></path><rect x="250.67" y="325.47" width="311.65" height="119.16" style="fill:#263238"></rect><rect x="224.13" y="325.47" width="311.65" height="119.16" style="fill:#455a64"></rect><path d="M466.63,369.27s0-.22,0-.63,0-1,0-1.84c0-1.62,0-4,0-7.09,0-6.19,0-15.23-.08-26.66l.15.15-151.85.11h0l.26-.26c0,12.4,0,24.53,0,36.22l-.25-.26,108.31.12,31.94.07,8.61,0,2.23,0,.77,0h-.74l-2.2,0-8.55,0-31.88.07-108.49.11h-.26V332.79h.27l151.85.1h.16v.16c0,11.47-.07,20.54-.09,26.75,0,3.08,0,5.45,0,7.06,0,.79,0,1.39,0,1.81S466.63,369.27,466.63,369.27Z" style="fill:#263238"></path><rect x="355.71" y="344.42" width="101.57" height="24.85" style="fill:#263238"></rect><path d="M438,368.1c-.14,0-.26-5.23-.26-11.68s.12-11.69.26-11.69.26,5.23.26,11.69S438.15,368.1,438,368.1Z" style="fill:#455a64"></path><path d="M413.52,356.76c0,.14-12.89.26-28.8.26s-28.81-.12-28.81-.26,12.9-.26,28.81-.26S413.52,356.61,413.52,356.76Z" style="fill:#455a64"></path><path d="M426.78,350.85a1.14,1.14,0,1,0,.34-.19" style="fill:#fafafa"></path><path d="M426.78,356.05a1.16,1.16,0,1,0,.34-.18" style="fill:#FF725E"></path><path d="M421.09,360.67a7.32,7.32,0,0,0-2.08,2.14,9.5,9.5,0,0,0-1.28,3.39,14.28,14.28,0,0,0,.07,4.95c.29,1.85.88,3.86,1.38,6.11a57.23,57.23,0,0,1,1.17,7.37,39.47,39.47,0,0,1-.13,8.59,27.73,27.73,0,0,1-2.82,9.19,23.39,23.39,0,0,1-3,4.28,22.8,22.8,0,0,1-4.07,3.61,16.49,16.49,0,0,1-21.92-1.86,23.45,23.45,0,0,1-4-5.06,14.3,14.3,0,0,1-2.05-6.32,9.8,9.8,0,0,1,1.92-6.51,7.77,7.77,0,0,1,6.23-2.92,9.91,9.91,0,0,1,6.61,2.55,14.47,14.47,0,0,1,3.94,6.09,19.87,19.87,0,0,1,1,7.32,22.92,22.92,0,0,1-1.67,7.31,26.53,26.53,0,0,1-9.49,11.81,37.67,37.67,0,0,1-14.07,5.82,53.86,53.86,0,0,1-14.78.87A60.39,60.39,0,0,1,335.57,421a58.33,58.33,0,0,1-18.28-17.33,81,81,0,0,1-9.64-19.8,125,125,0,0,1-4.42-17.63c-1-5.27-1.54-9.85-2-13.59s-.74-6.65-.94-8.62l-.22-2.25c-.05-.5-.06-.76-.06-.76s.05.25.11.76.16,1.26.27,2.24l1,8.61c.49,3.73,1.11,8.3,2.08,13.55A127.88,127.88,0,0,0,308,383.72a80.6,80.6,0,0,0,9.65,19.66,57.92,57.92,0,0,0,18.17,17.17,60.06,60.06,0,0,0,26.28,8.34,53.22,53.22,0,0,0,14.64-.87,37,37,0,0,0,13.87-5.74,26,26,0,0,0,9.31-11.57,22.31,22.31,0,0,0,1.63-7.15,19.39,19.39,0,0,0-.95-7.12,13.82,13.82,0,0,0-3.79-5.88,9.45,9.45,0,0,0-6.27-2.43,7.27,7.27,0,0,0-5.86,2.73,9.28,9.28,0,0,0-1.82,6.18,13.86,13.86,0,0,0,2,6.11,23.22,23.22,0,0,0,3.93,5A16,16,0,0,0,410.14,410a22.25,22.25,0,0,0,4-3.52,23,23,0,0,0,2.92-4.2,27.36,27.36,0,0,0,2.82-9.07,39.47,39.47,0,0,0,.17-8.51,53.87,53.87,0,0,0-1.13-7.35c-.48-2.23-1.05-4.26-1.33-6.13a14.52,14.52,0,0,1,0-5,9.26,9.26,0,0,1,1.35-3.41,6.78,6.78,0,0,1,1.52-1.67A4.28,4.28,0,0,1,421.09,360.67Z" style="fill:#263238"></path><path d="M527,437.92s0-.19,0-.53,0-.85,0-1.5c0-1.34,0-3.29,0-5.82,0-5.07,0-12.45-.06-21.74,0-18.56-.07-44.75-.12-75.28l.24.24-50.66,0h0l.26-.26c0,40.56,0,77.49-.06,104.86l-.2-.19,37,.11,10.11,0,2.64,0c.6,0,.91,0,.91,0l-.87,0-2.61,0-10.06,0-37.13.11h-.19v-.2c0-27.37,0-64.3-.07-104.86v-.26h51.18v.25c0,30.6-.09,56.84-.12,75.45,0,9.26,0,16.62-.07,21.68,0,2.51,0,4.44,0,5.77,0,.64,0,1.13,0,1.47S527,437.92,527,437.92Z" style="fill:#263238"></path><path d="M520,386.71a3.06,3.06,0,1,1-3.05-3.06A3,3,0,0,1,520,386.71Z" style="fill:#263238"></path><path d="M545.56,441.41a2.55,2.55,0,0,1,.55.09l1.55.33a55.19,55.19,0,0,0,5.75.84,27.13,27.13,0,0,0,4,.11,10,10,0,0,0,4.33-1.14,6.69,6.69,0,0,0,3-3.79,26.09,26.09,0,0,0,1-5.33,17.61,17.61,0,0,1,1.31-5.38,15.74,15.74,0,0,1,2.82-4.32,15.42,15.42,0,0,1,7.41-4.49,9.07,9.07,0,0,1,3.34-.36,3,3,0,0,1,2.21,1.23,2.16,2.16,0,0,1,.4,1.56,1.17,1.17,0,0,1-.2.52s.07-.18.1-.53a2.16,2.16,0,0,0-.46-1.43,2.82,2.82,0,0,0-2.08-1.06,9.33,9.33,0,0,0-3.22.42,15.39,15.39,0,0,0-7.14,4.46,15.65,15.65,0,0,0-2.72,4.2,17.48,17.48,0,0,0-1.25,5.25,27.71,27.71,0,0,1-1,5.43,7.15,7.15,0,0,1-3.23,4,10.31,10.31,0,0,1-4.55,1.16,26.08,26.08,0,0,1-4-.18,42.65,42.65,0,0,1-5.76-1c-.67-.16-1.18-.31-1.53-.42A2,2,0,0,1,545.56,441.41Z" style="fill:#263238"></path><path d="M570.56,441.49a2,2,0,0,1,.51.07l1.43.32a43,43,0,0,0,5.3.92,15.12,15.12,0,0,0,7.74-1.06,10.12,10.12,0,0,0,3.68-2.73,9,9,0,0,0,1.87-4.51c.26-1.7.29-3.41.55-5.05a15.45,15.45,0,0,1,1.48-4.56,10.67,10.67,0,0,1,5.88-5.4,8.68,8.68,0,0,1,5.4-.18,6.81,6.81,0,0,1,1.36.6q.43.27.42.3a13.35,13.35,0,0,0-1.83-.7,8.71,8.71,0,0,0-5.22.33,10.41,10.41,0,0,0-5.58,5.27,14.86,14.86,0,0,0-1.4,4.42c-.26,1.6-.28,3.3-.55,5.05a9.47,9.47,0,0,1-2,4.76,10.66,10.66,0,0,1-3.88,2.84,15.25,15.25,0,0,1-8,1,34.76,34.76,0,0,1-5.32-1.08l-1.41-.41A3,3,0,0,1,570.56,441.49Z" style="fill:#263238"></path><path d="M583.49,433.18h0a6.86,6.86,0,0,1-6.86-6.86h0a6.86,6.86,0,0,1,6.86-6.86h0a6.86,6.86,0,0,1,6.85,6.86h0A6.86,6.86,0,0,1,583.49,433.18Z" style="fill:#263238"></path><path d="M607.14,433.18h0a6.86,6.86,0,0,1-6.85-6.86h0a6.86,6.86,0,0,1,6.85-6.86h0a6.86,6.86,0,0,1,6.86,6.86h0A6.86,6.86,0,0,1,607.14,433.18Z" style="fill:#263238"></path><rect x="574.87" y="425.78" width="84.81" height="18.86" style="fill:#e0e0e0"></rect><rect x="563.6" y="425.78" width="84.81" height="18.86" style="fill:#ebebeb"></rect><rect x="338.55" y="254.72" width="64.8" height="70.47" style="fill:#263238"></rect><rect x="218.88" y="86.27" width="337.64" height="217.44" style="fill:#263238"></rect><rect x="209.63" y="86.27" width="337.64" height="217.44" style="fill:#263238"></rect><path d="M547,86.27c.14,0,.26,48.47.26,108.23s-.12,108.25-.26,108.25-.27-48.46-.27-108.25S546.86,86.27,547,86.27Z" style="fill:#455a64"></path><rect x="218.15" y="95.46" width="299.09" height="199.46" style="fill:#fff"></rect><path d="M360.1,272.22h-9.41V240.28a4.71,4.71,0,0,1,4.71-4.71h0a4.7,4.7,0,0,1,4.7,4.71Z" style="fill:#FF725E"></path><path d="M360.1,272.22h-9.41V240.28a4.71,4.71,0,0,1,4.71-4.71h0a4.7,4.7,0,0,1,4.7,4.71Z" style="fill:#455a64"></path><path d="M360.1,239.77s-2.1.06-4.69.06-4.69,0-4.69-.06,2.1-.06,4.69-.06S360.1,239.73,360.1,239.77Z" style="fill:#263238"></path><path d="M360.1,247.92s-2.1.06-4.69.06-4.69,0-4.69-.06,2.1-.06,4.69-.06S360.1,247.89,360.1,247.92Z" style="fill:#263238"></path><path d="M357.49,247.92s-.06-1.82-.06-4.08,0-4.07.06-4.07.07,1.82.07,4.07S357.53,247.92,357.49,247.92Z" style="fill:#263238"></path><path d="M356.39,242.14a.33.33,0,1,1-.33-.33A.33.33,0,0,1,356.39,242.14Z" style="fill:#263238"></path><path d="M356.39,245a.33.33,0,1,1-.33-.33A.33.33,0,0,1,356.39,245Z" style="fill:#263238"></path><path d="M360.1,264.51s-2.1.06-4.69.06-4.69,0-4.69-.06,2.1-.06,4.69-.06S360.1,264.47,360.1,264.51Z" style="fill:#263238"></path><path d="M357.49,264.51s-.06-1.83-.06-4.08,0-4.08.06-4.08.07,1.83.07,4.08S357.53,264.51,357.49,264.51Z" style="fill:#263238"></path><path d="M356.39,258.73a.33.33,0,1,1-.33-.34A.33.33,0,0,1,356.39,258.73Z" style="fill:#263238"></path><path d="M356.39,261.55a.33.33,0,1,1-.33-.34A.33.33,0,0,1,356.39,261.55Z" style="fill:#263238"></path><path d="M350.72,256.29s2.1-.06,4.69-.06,4.69,0,4.69.06-2.1.06-4.69.06S350.72,256.32,350.72,256.29Z" style="fill:#263238"></path><path d="M353.33,256.29s-.06-1.83-.06-4.08,0-4.08.06-4.08.06,1.83.06,4.08S353.37,256.29,353.33,256.29Z" style="fill:#263238"></path><path d="M354.43,250.51a.34.34,0,0,0,.67,0,.34.34,0,0,0-.67,0Z" style="fill:#263238"></path><path d="M354.43,253.33a.34.34,0,1,0,.34-.34A.34.34,0,0,0,354.43,253.33Z" style="fill:#263238"></path><path d="M351.31,240.57s0-.07,0-.19,0-.29.06-.5a5.93,5.93,0,0,1,.52-1.61,4.28,4.28,0,0,1,.5-.79,4,4,0,0,1,.54-.55l.24-.17.19-.11.17-.08s-.22.15-.54.43a4.7,4.7,0,0,0-.51.55,5.08,5.08,0,0,0-.48.77,6.82,6.82,0,0,0-.54,1.57A5.78,5.78,0,0,1,351.31,240.57Z" style="fill:#fafafa"></path><path d="M355.12,236.17s-.14.09-.33.12-.34,0-.35,0,.15-.09.33-.12S355.12,236.14,355.12,236.17Z" style="fill:#fafafa"></path><path d="M375.23,272.22h9.41V240.28a4.7,4.7,0,0,0-4.7-4.71h0a4.71,4.71,0,0,0-4.71,4.71Z" style="fill:#FF725E"></path><path d="M375.23,272.22h9.41V240.28a4.7,4.7,0,0,0-4.7-4.71h0a4.71,4.71,0,0,0-4.71,4.71Z" style="fill:#455a64"></path><path d="M375.23,239.77s2.1-.06,4.69-.06,4.69,0,4.69.06-2.09.06-4.69.06S375.23,239.8,375.23,239.77Z" style="fill:#263238"></path><path d="M375.23,247.92s2.1-.06,4.69-.06,4.69,0,4.69.06-2.09.06-4.69.06S375.23,248,375.23,247.92Z" style="fill:#263238"></path><path d="M377.84,247.92s-.06-1.82-.06-4.08,0-4.07.06-4.07.06,1.82.06,4.07S377.88,247.92,377.84,247.92Z" style="fill:#263238"></path><path d="M379,242.14a.33.33,0,0,0,.33.33.33.33,0,0,0,0-.66A.33.33,0,0,0,379,242.14Z" style="fill:#263238"></path><path d="M379,245a.33.33,0,0,0,.33.33.33.33,0,0,0,0-.66A.33.33,0,0,0,379,245Z" style="fill:#263238"></path><path d="M375.23,264.51s2.1-.06,4.69-.06,4.69,0,4.69.06-2.09.06-4.69.06S375.23,264.54,375.23,264.51Z" style="fill:#263238"></path><path d="M377.84,264.51s-.06-1.83-.06-4.08,0-4.08.06-4.08.06,1.83.06,4.08S377.88,264.51,377.84,264.51Z" style="fill:#263238"></path><path d="M379,258.73a.33.33,0,0,0,.33.33.34.34,0,0,0,0-.67A.33.33,0,0,0,379,258.73Z" style="fill:#263238"></path><path d="M379,261.55a.33.33,0,0,0,.33.33.34.34,0,0,0,0-.67A.33.33,0,0,0,379,261.55Z" style="fill:#263238"></path><path d="M384.61,256.29s-2.1.06-4.69.06-4.69,0-4.69-.06,2.1-.06,4.69-.06S384.61,256.25,384.61,256.29Z" style="fill:#263238"></path><path d="M382,256.29s-.07-1.83-.07-4.08,0-4.08.07-4.08.06,1.83.06,4.08S382,256.29,382,256.29Z" style="fill:#263238"></path><path d="M380.9,250.51a.33.33,0,0,1-.33.33.33.33,0,0,1-.33-.33.33.33,0,0,1,.33-.33A.32.32,0,0,1,380.9,250.51Z" style="fill:#263238"></path><path d="M380.9,253.33a.33.33,0,0,1-.33.33.34.34,0,0,1,0-.67A.33.33,0,0,1,380.9,253.33Z" style="fill:#263238"></path><path d="M384,240.57a5.78,5.78,0,0,1-.15-.68,6.82,6.82,0,0,0-.54-1.57,6,6,0,0,0-.48-.77,4.7,4.7,0,0,0-.51-.55c-.32-.28-.56-.41-.55-.43a.74.74,0,0,1,.18.08l.19.11a2.68,2.68,0,0,1,.23.17,3.14,3.14,0,0,1,.54.55,4.3,4.3,0,0,1,.51.79,5.87,5.87,0,0,1,.51,1.61,4.84,4.84,0,0,1,.07.5Z" style="fill:#fff"></path><path d="M380.22,236.17s.16,0,.34,0,.34.08.33.12-.16,0-.35,0S380.21,236.21,380.22,236.17Z" style="fill:#fff"></path><path d="M364.88,223l-3.3,6.22a12.8,12.8,0,0,0-1.48,6v43.34l5.79,3.7h4l5.39-3.7V235.38a12.68,12.68,0,0,0-1.36-5.73L370.56,223a2.22,2.22,0,0,0-2-1.23H366.9A2.25,2.25,0,0,0,364.88,223Z" style="fill:#FF725E"></path><path d="M360.1,275.08H345.55a14.78,14.78,0,0,1,6.09-11c6.08-4.57,8.46-14.9,8.46-14.9Z" style="fill:#FF725E"></path><path d="M375.29,275.08h14.56a14.78,14.78,0,0,0-6.09-11c-6.09-4.57-8.47-14.9-8.47-14.9Z" style="fill:#FF725E"></path><g style="opacity:0.2"><path d="M360.1,275.08H345.55a14.78,14.78,0,0,1,6.09-11c6.08-4.57,8.46-14.9,8.46-14.9Z"></path></g><g style="opacity:0.2"><path d="M375.29,275.08h14.56a14.78,14.78,0,0,0-6.09-11c-6.09-4.57-8.47-14.9-8.47-14.9Z"></path></g><path d="M361.17,252.42s-.06-3.2-.06-7.14,0-7.15.06-7.15.07,3.2.07,7.15S361.21,252.42,361.17,252.42Z" style="fill:#fafafa"></path><ellipse cx="361.33" cy="234.54" rx="0.06" ry="0.65" style="fill:#fafafa"></ellipse><path d="M366,222.82s-1,2-2.22,4.47-2.3,4.42-2.33,4.4,1-2,2.22-4.46S366,222.81,366,222.82Z" style="fill:#fafafa"></path><path d="M358.53,256a.28.28,0,0,1,0,.06l0,.17-.05.27a2.35,2.35,0,0,1-.09.36,9.49,9.49,0,0,1-.9,2.2,15.8,15.8,0,0,1-2.1,2.83c-.89,1-2,2-3.09,3a22.62,22.62,0,0,0-2.88,3.19,17.5,17.5,0,0,0-1,1.57c-.28.52-.53,1-.72,1.46a12.66,12.66,0,0,0-.75,2.25c-.07.27-.1.49-.13.63l0,.17a.18.18,0,0,0,0,.05s0,0,0-.06l0-.16c0-.15,0-.37.11-.64a12.22,12.22,0,0,1,.72-2.27,11.71,11.71,0,0,1,.72-1.48,15.57,15.57,0,0,1,1-1.59,21.16,21.16,0,0,1,2.89-3.21c1.13-1,2.19-2,3.09-3a15.72,15.72,0,0,0,2.1-2.81,9.81,9.81,0,0,0,.94-2.16l.1-.36c0-.11,0-.19.06-.27l0-.16Z" style="fill:#fafafa"></path><path d="M369,236.61h-2.51a2.75,2.75,0,0,1-2.75-2.75h0a2.75,2.75,0,0,1,2.75-2.75H369a2.75,2.75,0,0,1,2.75,2.75h0A2.75,2.75,0,0,1,369,236.61Z" style="fill:#fff"></path><g style="opacity:0.4"><polyline points="360.1 278.53 365.89 282.23 369.9 282.23 375.29 278.53 375.29 277.01 360.1 277.01 360.1 278.53"></polyline></g><path d="M369.17,163.74A2,2,0,0,0,367,164.8a6,6,0,0,0-.65,2.48c-.35,3.34-.64,6.84.62,10,.36.87,1,1.83,2,1.73s1.45-1.29,1.65-2.28a37.45,37.45,0,0,0,.7-6.85,11.74,11.74,0,0,0-.35-3.45,5,5,0,0,0-1.94-2.8" style="fill:#FF725E"></path><g style="opacity:0.6000000000000001"><path d="M369.17,163.74A2,2,0,0,0,367,164.8a6,6,0,0,0-.65,2.48c-.35,3.34-.64,6.84.62,10,.36.87,1,1.83,2,1.73s1.45-1.29,1.65-2.28a37.45,37.45,0,0,0,.7-6.85,11.74,11.74,0,0,0-.35-3.45,5,5,0,0,0-1.94-2.8" style="fill:#fff"></path></g><path d="M368.65,165.2c.72,0,1.3,3.06,1.3,6.83s-.58,6.84-1.3,6.84-1.3-3.06-1.3-6.84S367.93,165.2,368.65,165.2Z" style="fill:#FF725E"></path><path d="M369.17,199.26a2.05,2.05,0,0,0-2.16,1.05,6.05,6.05,0,0,0-.65,2.49c-.35,3.34-.64,6.84.62,10,.36.87,1,1.83,2,1.73s1.45-1.29,1.65-2.28a37.45,37.45,0,0,0,.7-6.85,11.74,11.74,0,0,0-.35-3.45,5,5,0,0,0-1.94-2.8" style="fill:#FF725E"></path><g style="opacity:0.6000000000000001"><path d="M369.17,199.26a2.05,2.05,0,0,0-2.16,1.05,6.05,6.05,0,0,0-.65,2.49c-.35,3.34-.64,6.84.62,10,.36.87,1,1.83,2,1.73s1.45-1.29,1.65-2.28a37.45,37.45,0,0,0,.7-6.85,11.74,11.74,0,0,0-.35-3.45,5,5,0,0,0-1.94-2.8" style="fill:#fff"></path></g><path d="M368.65,200.72c.72,0,1.3,3.06,1.3,6.83s-.58,6.83-1.3,6.83-1.3-3-1.3-6.83S367.93,200.72,368.65,200.72Z" style="fill:#FF725E"></path><path d="M369.17,128.32a2.05,2.05,0,0,0-2.16,1.05,6.05,6.05,0,0,0-.65,2.49c-.35,3.34-.64,6.84.62,9.95.36.88,1,1.84,2,1.74s1.45-1.29,1.65-2.28a37.54,37.54,0,0,0,.7-6.85A11.74,11.74,0,0,0,371,131a5,5,0,0,0-1.94-2.8" style="fill:#FF725E"></path><g style="opacity:0.6000000000000001"><path d="M369.17,128.32a2.05,2.05,0,0,0-2.16,1.05,6.05,6.05,0,0,0-.65,2.49c-.35,3.34-.64,6.84.62,9.95.36.88,1,1.84,2,1.74s1.45-1.29,1.65-2.28a37.54,37.54,0,0,0,.7-6.85A11.74,11.74,0,0,0,371,131a5,5,0,0,0-1.94-2.8" style="fill:#fff"></path></g><path d="M368.65,129.77c.72,0,1.3,3.06,1.3,6.84s-.58,6.83-1.3,6.83-1.3-3.06-1.3-6.83S367.93,129.77,368.65,129.77Z" style="fill:#FF725E"></path><path d="M280.9,122.27H231.28a2.84,2.84,0,0,1-2.84-2.84h0a2.84,2.84,0,0,1,2.84-2.84H280.9a2.84,2.84,0,0,1,2.84,2.84h0A2.84,2.84,0,0,1,280.9,122.27Z" style="fill:#263238"></path><path d="M261.77,122.27H231.28a2.84,2.84,0,0,1-2.84-2.84h0a2.84,2.84,0,0,1,2.84-2.84h30.49Z" style="fill:#FF725E"></path><path d="M280.9,130.82H231.28a2.84,2.84,0,0,1-2.84-2.84h0a2.84,2.84,0,0,1,2.84-2.84H280.9a2.84,2.84,0,0,1,2.84,2.84h0A2.84,2.84,0,0,1,280.9,130.82Z" style="fill:#263238"></path><path d="M246,130.82h-14.7a2.84,2.84,0,0,1-2.84-2.84h0a2.84,2.84,0,0,1,2.84-2.84H246Z" style="fill:#FF725E"></path><path d="M234.82,111.48a16.14,16.14,0,0,1-3.88-2.54,4.23,4.23,0,0,1-1.43-3.66,2.61,2.61,0,0,1,3-2.16,3.85,3.85,0,0,1,2.2,2.19,2.69,2.69,0,0,1,4.58-1.42c1.22,1.23.94,3.39-.13,4.75a11,11,0,0,1-4.29,2.84" style="fill:#FF725E"></path><path d="M248.13,111.48a16.34,16.34,0,0,1-3.88-2.54,4.22,4.22,0,0,1-1.42-3.66,2.6,2.6,0,0,1,2.95-2.16,3.87,3.87,0,0,1,2.19,2.19,2.69,2.69,0,0,1,4.58-1.42c1.22,1.23.94,3.39-.13,4.75a11,11,0,0,1-4.29,2.84" style="fill:#FF725E"></path><path d="M261.45,111.48a16.2,16.2,0,0,1-3.89-2.54,4.25,4.25,0,0,1-1.42-3.66,2.6,2.6,0,0,1,2.95-2.16,3.87,3.87,0,0,1,2.19,2.19,2.78,2.78,0,0,1,1.86-2.11,2.74,2.74,0,0,1,2.72.69c1.22,1.23.94,3.39-.12,4.75a11,11,0,0,1-4.29,2.84" style="fill:#FF725E"></path><path d="M275.19,111.48a16.34,16.34,0,0,1-3.88-2.54,4.25,4.25,0,0,1-1.42-3.66,2.6,2.6,0,0,1,2.95-2.16,3.87,3.87,0,0,1,2.19,2.19,2.78,2.78,0,0,1,1.86-2.11,2.74,2.74,0,0,1,2.72.69c1.22,1.23.94,3.39-.13,4.75a11,11,0,0,1-4.29,2.84" style="fill:#e0e0e0"></path><path d="M276,163l.3.55a3.45,3.45,0,0,0,1.36,1.37l.56.3-.56.3a3.42,3.42,0,0,0-1.36,1.36l-.3.56-.3-.56a3.45,3.45,0,0,0-1.37-1.36l-.55-.3.55-.3a3.47,3.47,0,0,0,1.37-1.37Z" style="fill:#e0e0e0"></path><path d="M430.85,215.33l.3.55a3.45,3.45,0,0,0,1.37,1.36l.55.3-.55.31a3.45,3.45,0,0,0-1.37,1.36l-.3.55-.3-.55a3.45,3.45,0,0,0-1.37-1.36l-.55-.31.55-.3a3.45,3.45,0,0,0,1.37-1.36Z" style="fill:#e0e0e0"></path><path d="M340.27,184.57l.45.82a5.16,5.16,0,0,0,2,2l.81.45-.81.44a5.16,5.16,0,0,0-2,2l-.45.82-.44-.82a5.16,5.16,0,0,0-2-2l-.82-.44.82-.45a5.16,5.16,0,0,0,2-2Z" style="fill:#455a64"></path><path d="M460.21,247.84l.45.82a5,5,0,0,0,2,2l.81.44-.81.45a5,5,0,0,0-2,2l-.45.82-.45-.82a5,5,0,0,0-2-2l-.81-.45.81-.44a5,5,0,0,0,2-2Z" style="fill:#455a64"></path><path d="M281.45,283.44l.13.25a1.62,1.62,0,0,0,.61.61l.25.13-.25.14a1.62,1.62,0,0,0-.61.61l-.13.25-.14-.25a1.49,1.49,0,0,0-.61-.61l-.24-.14.24-.13a1.49,1.49,0,0,0,.61-.61Z" style="fill:#455a64"></path><path d="M312.52,231.8l.14.24a1.49,1.49,0,0,0,.61.61l.24.14-.24.13a1.56,1.56,0,0,0-.61.61l-.14.25-.13-.25a1.62,1.62,0,0,0-.61-.61l-.25-.13.25-.14a1.56,1.56,0,0,0,.61-.61Z" style="fill:#455a64"></path><path d="M415.68,285.18l.14.25a1.56,1.56,0,0,0,.61.61l.25.13-.25.14a1.49,1.49,0,0,0-.61.61l-.14.24-.13-.24a1.49,1.49,0,0,0-.61-.61l-.25-.14.25-.13a1.56,1.56,0,0,0,.61-.61Z" style="fill:#455a64"></path><path d="M404.72,189.3l.14.25a1.62,1.62,0,0,0,.61.61l.25.13-.25.14a1.49,1.49,0,0,0-.61.61l-.14.24-.13-.24a1.49,1.49,0,0,0-.61-.61l-.25-.14.25-.13a1.62,1.62,0,0,0,.61-.61Z" style="fill:#455a64"></path><path d="M496.26,206.79l.14.24a1.49,1.49,0,0,0,.61.61l.24.14-.24.13a1.56,1.56,0,0,0-.61.61l-.14.25-.13-.25a1.62,1.62,0,0,0-.61-.61l-.25-.13.25-.14a1.56,1.56,0,0,0,.61-.61Z" style="fill:#455a64"></path><path d="M325.46,157.56l.14.25a1.49,1.49,0,0,0,.61.61l.25.14-.25.13a1.49,1.49,0,0,0-.61.61l-.14.25-.13-.25a1.49,1.49,0,0,0-.61-.61l-.25-.13.25-.14a1.49,1.49,0,0,0,.61-.61Z" style="fill:#455a64"></path><path d="M267.65,142.56l.14.25a1.49,1.49,0,0,0,.61.61l.25.13-.25.14a1.49,1.49,0,0,0-.61.61l-.14.25-.13-.25a1.49,1.49,0,0,0-.61-.61l-.25-.14.25-.13a1.49,1.49,0,0,0,.61-.61Z" style="fill:#455a64"></path><path d="M314.74,277.71l.3.55a3.45,3.45,0,0,0,1.37,1.36l.55.31-.55.3a3.45,3.45,0,0,0-1.37,1.36l-.3.55-.3-.55a3.45,3.45,0,0,0-1.37-1.36l-.55-.3.55-.31a3.45,3.45,0,0,0,1.37-1.36Z" style="fill:#e0e0e0"></path><path d="M494.18,239.25l.3.55a3.45,3.45,0,0,0,1.36,1.37l.56.3-.56.3a3.45,3.45,0,0,0-1.36,1.37l-.3.55-.3-.55a3.47,3.47,0,0,0-1.37-1.37l-.55-.3.55-.3a3.47,3.47,0,0,0,1.37-1.37Z" style="fill:#e0e0e0"></path><path d="M329.57,118.88l.31.55a3.38,3.38,0,0,0,1.36,1.37l.55.3-.55.3a3.36,3.36,0,0,0-1.36,1.36l-.31.56-.3-.56a3.42,3.42,0,0,0-1.36-1.36l-.56-.3.56-.3a3.45,3.45,0,0,0,1.36-1.37Z" style="fill:#e0e0e0"></path><path d="M255.82,272.76c4.77-2.84,8.57-6.79,13.94-8.85,7.76-3,17.6-1.49,24.75-5.32,7.55-4,9.13-12.45,8-19.66s-4.25-14.32-3.34-21.54c.89-7,5.5-13.82,3.59-20.67-1.72-6.16-8.35-10.63-15.07-14s-14.1-6.14-19.17-11c-6.37-6.11-9.21-15.42-18.59-18.07-6.59-1.87-13.82.47-19.87,3.26a104.84,104.84,0,0,1-11.91,5.15v22.56a44.9,44.9,0,1,1,0,72v15.82a34,34,0,0,0,8.79,3.83C236.53,279,247.7,277.6,255.82,272.76Z" style="fill:#ebebeb"></path><path d="M466.06,142.05a39.17,39.17,0,0,1-29.47-11.15c-7.66-7.59-11.79-18-18.15-26.69a40.67,40.67,0,0,0-8.63-8.75H390.38a79.29,79.29,0,0,0-.24,38.55,56.64,56.64,0,0,1,15.79,3.39c15.82,6.23,19.82,15,37,32.15s35.36-7,54.12-3.75c6.72,1.15,13.84,4,20.23,7.16V132.39C500.24,128.22,483.59,141,466.06,142.05Z" style="fill:#FF725E"></path><path d="M515.29,95.46q.51.06,1,.15l.94.18v-.33Z" style="fill:#FF725E"></path><path d="M510,95.46H458.37q1.8,1.88,3.82,3.9C477.42,114.58,493.49,97.28,510,95.46Z" style="fill:#FF725E"></path><path d="M515.29,95.46H510c-16.54,1.82-32.61,19.12-47.84,3.9q-2-2-3.82-3.9H409.81a40.67,40.67,0,0,1,8.63,8.75c6.36,8.71,10.49,19.1,18.15,26.69a39.17,39.17,0,0,0,29.47,11.15c17.53-1,34.18-13.83,51.19-9.66V95.79l-.94-.18Q515.8,95.52,515.29,95.46Z" style="fill:#FF725E"></path><g style="opacity:0.4"><path d="M515.29,95.46H510c-16.54,1.82-32.61,19.12-47.84,3.9q-2-2-3.82-3.9H409.81a40.67,40.67,0,0,1,8.63,8.75c6.36,8.71,10.49,19.1,18.15,26.69a39.17,39.17,0,0,0,29.47,11.15c17.53-1,34.18-13.83,51.19-9.66V95.79l-.94-.18Q515.8,95.52,515.29,95.46Z" style="fill:#fff"></path></g><path d="M442.9,169.55c-17.15-17.14-21.15-25.92-37-32.15A56.64,56.64,0,0,0,390.14,134a79,79,0,0,0,127.11,42.12V173c-6.39-3.17-13.51-6-20.23-7.16C478.26,162.59,460.05,186.7,442.9,169.55Z" style="fill:#FF725E"></path><path d="M289.86,220.68a44.9,44.9,0,0,0-71.71-36v72a44.9,44.9,0,0,0,71.71-36Z" style="fill:#455a64"></path><path d="M444.5,294.92h72.75V275.17A43.09,43.09,0,0,0,498,264.64C475.48,259.06,452.5,272.44,444.5,294.92Z" style="fill:#263238"></path><g style="opacity:0.4"><path d="M442.9,169.55c-17.15-17.14-21.15-25.92-37-32.15A56.64,56.64,0,0,0,390.14,134a79,79,0,0,0,127.11,42.12V173c-6.39-3.17-13.51-6-20.23-7.16C478.26,162.59,460.05,186.7,442.9,169.55Z" style="fill:#fff"></path></g><rect x="494.66" y="297.27" width="12.49" height="1.52" style="fill:#FF725E"></rect><path d="M441.93,111.5l.33-.72a3.3,3.3,0,0,0,2.11.74c1.1,0,1.57-.42,1.57-1,0-1.56-3.86-.57-3.86-2.94,0-1,.77-1.83,2.44-1.83a3.79,3.79,0,0,1,2.05.57l-.3.73a3.23,3.23,0,0,0-1.75-.52c-1.08,0-1.55.45-1.55,1,0,1.56,3.87.58,3.87,2.92,0,1-.79,1.82-2.47,1.82A3.79,3.79,0,0,1,441.93,111.5Z" style="fill:#263238"></path><path d="M447.65,109a3.23,3.23,0,0,1,3.38-3.27,3.14,3.14,0,0,1,2.42,1l-.59.57a2.34,2.34,0,0,0-1.79-.75,2.45,2.45,0,1,0,0,4.9,2.36,2.36,0,0,0,1.79-.77l.59.58a3.18,3.18,0,0,1-2.43,1A3.23,3.23,0,0,1,447.65,109Z" style="fill:#263238"></path><path d="M454.1,109a3.39,3.39,0,1,1,3.4,3.26A3.25,3.25,0,0,1,454.1,109Zm5.87,0a2.48,2.48,0,1,0-2.47,2.45A2.39,2.39,0,0,0,460,109Z" style="fill:#263238"></path><path d="M466.54,112.22l-1.38-2h-2v1.94h-.91v-6.37h2.48c1.66,0,2.66.84,2.66,2.22a2,2,0,0,1-1.4,2l1.51,2.14Zm0-4.15c0-.91-.61-1.43-1.78-1.43h-1.54v2.87h1.54C465.9,109.51,466.51,109,466.51,108.07Z" style="fill:#263238"></path><path d="M473.53,111.43v.79H468.9v-6.37h4.5v.79h-3.59v2H473v.77h-3.2v2.06Z" style="fill:#263238"></path><path d="M476.94,109c0-2.08,1.11-3.27,2.6-3.27s2.6,1.19,2.6,3.27-1.11,3.26-2.6,3.26S476.94,111.11,476.94,109Zm4.29,0c0-1.63-.69-2.45-1.69-2.45s-1.69.82-1.69,2.45.69,2.45,1.69,2.45S481.23,110.67,481.23,109Z" style="fill:#263238"></path><path d="M483,109c0-2.08,1.11-3.27,2.6-3.27s2.6,1.19,2.6,3.27-1.11,3.26-2.6,3.26S483,111.11,483,109Zm4.29,0c0-1.63-.7-2.45-1.69-2.45s-1.69.82-1.69,2.45.69,2.45,1.69,2.45S487.31,110.67,487.31,109Z" style="fill:#263238"></path><path d="M491,105.85v6.37h-.9v-5.58H488.7v-.79Z" style="fill:#263238"></path><path d="M496.92,111.43v.79h-4.58v-.62l2.6-2.5c.67-.66.8-1.06.8-1.46,0-.65-.47-1-1.36-1a2,2,0,0,0-1.63.69l-.62-.54a2.94,2.94,0,0,1,2.33-1c1.33,0,2.19.69,2.19,1.78a2.58,2.58,0,0,1-1,2l-2,1.87Z" style="fill:#263238"></path><path d="M503,110.66h-1.21v1.56H501v-1.56H497.4V110l3.27-4.17h1l-3.12,4H501v-1.38h.85v1.38H503Z" style="fill:#263238"></path><path d="M509.14,110.66h-1.21v1.56H507v-1.56H503.5V110l3.26-4.17h1l-3.13,4h2.45v-1.38h.86v1.38h1.21Z" style="fill:#263238"></path></g><g id="freepik--Drink--inject-2"><path d="M409.3,470.53a56.67,56.67,0,0,1-11.93,0,5.25,5.25,0,0,1-4.69-5.22H414A5.28,5.28,0,0,1,409.3,470.53Z" style="fill:#e0e0e0"></path><path d="M412.77,469.14a44,44,0,0,1-18.86.05,5.28,5.28,0,0,1-4.13-5.16V431.5a5.27,5.27,0,0,1,5.27-5.27h16.6a5.27,5.27,0,0,1,5.27,5.27V464A5.27,5.27,0,0,1,412.77,469.14Z" style="fill:#FF725E"></path><path d="M416,428.56c.42,1.35-.6,3.07-2.87,4.52a20,20,0,0,1-19.43.12c-2.28-1.42-3.32-3.13-2.92-4.49s2.1-2.22,4.36-2.73a39.54,39.54,0,0,1,8.23-.74,40.36,40.36,0,0,1,8.24.64C413.83,426.36,415.53,427.17,416,428.56Z" style="fill:#e0e0e0"></path><path d="M411,428.11a8.09,8.09,0,0,0-3.72.31c-.54.17-1.15.54-1.11,1.1s.5.78.94,1a7.55,7.55,0,0,0,6-.14c.44-.21.92-.6.79-1.07a1,1,0,0,0-.51-.53,5.5,5.5,0,0,0-2.68-.76" style="fill:#263238"></path><path d="M416.92,444.25a2.84,2.84,0,0,1-.69.61,5.38,5.38,0,0,1-2.48.91,6.18,6.18,0,0,1-4.05-.93,5.05,5.05,0,0,1-1.77-2,2.32,2.32,0,0,1-.24-1.48,1.49,1.49,0,0,1,1.11-1.17,2,2,0,0,1,1.57.59,7,7,0,0,1,1.15,1.22,8,8,0,0,1,1.39,3.25,7.42,7.42,0,0,1-.27,3.78,6.8,6.8,0,0,1-2.42,3.21,7.35,7.35,0,0,1-4,1.43,6.14,6.14,0,0,1-4.19-1.32,7.09,7.09,0,0,1-2.48-3.84,6.28,6.28,0,0,1-.11-2.37,2.67,2.67,0,0,1,1.24-2.13,1.43,1.43,0,0,1,1.51.22,3,3,0,0,1,.8,1.17,11.47,11.47,0,0,1,.6,2.58,14.69,14.69,0,0,1-.24,5.09,14.31,14.31,0,0,1-1.88,4.51,6.71,6.71,0,0,1-3.59,2.95,4.54,4.54,0,0,1-4.19-1.11,7.05,7.05,0,0,1-2.14-3.43,8.61,8.61,0,0,1,.81-6.78l.17-.28.12.3a9.76,9.76,0,0,1,.73,4.31,10.37,10.37,0,0,1-.69,3.18,7.13,7.13,0,0,1-1.38,2.33,13.16,13.16,0,0,0,1.22-2.4,10.3,10.3,0,0,0,.59-3.12,9.74,9.74,0,0,0-.77-4.17h.29a8.33,8.33,0,0,0-.7,6.51,6.8,6.8,0,0,0,2,3.21,4.13,4.13,0,0,0,3.78,1,6.25,6.25,0,0,0,3.3-2.77,13.5,13.5,0,0,0,1.79-4.35,14.2,14.2,0,0,0,.23-4.92,11.71,11.71,0,0,0-.57-2.44,2.41,2.41,0,0,0-.65-1,.88.88,0,0,0-1-.15,2.22,2.22,0,0,0-.95,1.74,5.46,5.46,0,0,0,.11,2.17,6.61,6.61,0,0,0,2.28,3.56,5.74,5.74,0,0,0,3.86,1.23,6.84,6.84,0,0,0,3.71-1.33,6.39,6.39,0,0,0,2.27-3,7,7,0,0,0,.27-3.55,7.42,7.42,0,0,0-1.29-3.09,6.65,6.65,0,0,0-1.07-1.17,1.65,1.65,0,0,0-1.25-.52,1.12,1.12,0,0,0-.83.89,1.92,1.92,0,0,0,.19,1.26,4.78,4.78,0,0,0,1.63,1.86,6,6,0,0,0,3.87,1,5.56,5.56,0,0,0,2.44-.79C416.68,444.46,416.89,444.23,416.92,444.25Z" style="fill:#fafafa"></path></g></svg>
