<svg id="Layer_1" data-name="Layer 1" xmlns="http://www.w3.org/2000/svg" xmlns:xlink="http://www.w3.org/1999/xlink" viewBox="0 0 500 500"><defs><clipPath id="clip-path"><rect width="500" height="500" style="fill:none"/></clipPath><clipPath id="clip-path-2"><path d="M151.5,315.5s2-9.3-4.5-22.18-14.36-25-18.64-33.83c-3.16-6.52-4.59-15.42-5.12-19.61,1.21-1,10.54-8.48,12.32-12,1.9-3.72,1.26-9.88,4-13.27s6.44-7.93,3.26-8.64-5.13-.22-7.51,2.08a23.27,23.27,0,0,0-4.55,7.17,18.78,18.78,0,0,1-2.28,4.25,3.3,3.3,0,0,1-1.9,1.06l-2.18-40.26A2.42,2.42,0,0,0,122.5,178a4.3,4.3,0,0,0-1.7.05c-2.21.51-2.23,3.69-2.09,5.09s-.21,19.33-.21,19.33l-3-.57-7.77-23.85a2.91,2.91,0,0,0-3.43-2,2.83,2.83,0,0,0-2,3.46l6.31,24.3-2.06,1.65L92.59,181.93a2.45,2.45,0,0,0-3.82-.54,2.52,2.52,0,0,0-.48,2.89L98.9,206.82a.56.56,0,0,1-.84.69c-2.12-1.53-3.55-2.63-5.44-4.09-.81-.61-7.11-6.27-8-6.72-2.6-1.3-4.09.8-2.31,3.47a46.26,46.26,0,0,0,4.07,4.46l8.5,9.32s1.79,5,3,9.36a88.48,88.48,0,0,0,3.37,10.42l.94,2.3c1.21,13.3,2.35,59.88,10.76,74,8.53,14.27,17.28,22.28,28.15,21.06,8.15-.91,11.38-5.26,12.42-7.55" style="fill:none;stroke:#263238;stroke-linecap:round;stroke-linejoin:round;stroke-width:2.5px"/></clipPath></defs><title>HI_BRO</title><g style="clip-path:url(#clip-path)"><path d="M263.36,476.53s-23.87,80.26-26.92,88.38.51,10.16,6.6,20.83,13.67,26.42,15.2,39.62,25.9,83.31,25.9,83.31S276.52,729.5,275,728s-14.22-3-21.84-5.08-10.67-3-10.67-3-.51,2.54-.51-4.58S246,701.56,246.55,699s-29.92-50.8-46.68-86.86-17.78-57.41-14.74-99.57a305.77,305.77,0,0,1,15.75-76.19l65.53,7.11Z" style="fill:#263238;stroke:#263238;stroke-linecap:round;stroke-linejoin:round;stroke-width:2.495915217890115px"/><path d="M325,430s-5.3,129.83-6.32,149.65-5.58,41.65-2,60.44-5.08,43.18-9.65,64.52-6.6,28.44-5.08,31,4.06,7.11,4.06,9.65,1,6.1-1,6.1-16.76,4.57-25.4,8.13-17.78,6.09-18.79,4.57-4.58-8.64-4.58-21.84,4.58-24.89,3.05-38.1-2.54-51.31-2-72.13.75-51.42.24-62.59S246.23,482,246.23,482l-13.85-33.94Z" style="fill:#263238;stroke:#263238;stroke-linecap:round;stroke-linejoin:round;stroke-width:2.495915217890115px"/><path d="M248.72,514.47S230,494.5,220,482" style="fill:none;stroke:#fff;stroke-linecap:round;stroke-linejoin:round;stroke-width:2.495915217890115px"/><path d="M304.14,459.56S306.63,477,312.87,487l6.24,10" style="fill:none;stroke:#fff;stroke-linecap:round;stroke-linejoin:round;stroke-width:2.495915217890115px"/><path d="M358.88,214.25c-8.64-5.08-28.45-14.22-28.45-14.22s-1.54-10.18-14.24-15.76-20.79.52-31.46,3.06-26.42,1.09-29-3S249.17,158,249.17,158l-32.51,11.17s-1,19.81-1,21.34-2.54,2.54-5.08,4.06-19.82,3.56-35.06,14.22-13.2,29-13.2,29-5.08,6.6-14.73,19.3c-3.16,4.15-6.59,12.27-9.59,21.58,0,.12,0,.24,0,.37.94.6,3.92,23,13,35.05,3,4,3.79,10.84,2,13,7-5,31.15-48.66,31.15-48.66l10.16,18.28s3.05,24.39,3.05,65S192,451,192,451s34.49,6.38,71,4c46-3,68-23,68-23s-2-7.19-2-27-8-84-7.7-113.54c.28-27,1-48.76,1-48.76s3.13,1.56,8.08,3.65c1.29.54,2.7,1.12,4.21,1.71,3.15,1.24,6.75,2.56,10.57,3.78,12.7,4.07,19.31.51,21.85-6.09S367.51,219.33,358.88,214.25Z" style="fill:#92e3a9;stroke:#263238;stroke-linecap:round;stroke-linejoin:round;stroke-width:2.495915217890115px"/><path d="M355.69,108.8a14.46,14.46,0,0,1-6-10.21c-.94-7.15-1.86-8.36-5.14-6.73s-5.82,6.36-4.33,9.89a46.24,46.24,0,0,0,3.75,6.87Z" style="fill:#fff;stroke:#263238;stroke-linecap:round;stroke-linejoin:round;stroke-width:2.234359895420039px"/><path d="M370.29,245.6c1.95-2.76,2.44-6.17,3.14-9.79,3-15.61.66-31.58-3.4-49.22A280.71,280.71,0,0,1,364,139.78c-.48-19.37-.21-29.07-1.36-30.43s-27.57-2.83-29.22-2.84-1.74,1.25-2.23,4.25-1.69,16.41-1.74,18.68,1.53,4.55,4.95,6a6.15,6.15,0,0,0,5.7-.18l2.27.05s-1,4.35,1.19,7.3a9.62,9.62,0,0,0,5.78,3.49c.9,13.63-2.46,32.37-4.6,47.42-1.47,10.37-5.82,22.7-6.78,33.17-.56,6.15.37,15.52,5.25,20.06,4.63,4.32,10.62,7.83,17.1,5.9A18.67,18.67,0,0,0,370.29,245.6Z" style="fill:#fff;stroke:#263238;stroke-linecap:round;stroke-linejoin:round;stroke-width:2.598092901651208px"/><path d="M330,126.21s1.17-1.93,2.57-2.07,15.93,1.4,15.93,1.4" style="fill:none;stroke:#263238;stroke-linecap:round;stroke-linejoin:round;stroke-width:2.234359895420039px"/><line x1="330.99" y1="117.56" x2="351.51" y2="118.45" style="fill:none;stroke:#263238;stroke-linecap:round;stroke-linejoin:round;stroke-width:2.234359895420039px"/><line x1="331.15" y1="110.76" x2="352.64" y2="112.22" style="fill:none;stroke:#263238;stroke-linecap:round;stroke-linejoin:round;stroke-width:2.234359895420039px"/><path d="M299.86,247.11s-28.13,92.72-59.22,131.21" style="fill:none;stroke:#263238;stroke-linecap:round;stroke-linejoin:round;stroke-width:2.495915217890115px"/><path d="M259.92,414.84a59.17,59.17,0,0,1-7.43,9.38" style="fill:none;stroke:#263238;stroke-linecap:round;stroke-linejoin:round;stroke-width:2.495915217890115px"/><path d="M301.34,270.8s-11.51,84-34.55,131.68" style="fill:none;stroke:#263238;stroke-linecap:round;stroke-linejoin:round;stroke-width:2.495915217890115px"/><path d="M320.11,205.66s-17.77,14.8-10.36,32.57c0,0-5.92-8.88-5.92-26.65" style="fill:none;stroke:#263238;stroke-linecap:round;stroke-linejoin:round;stroke-width:2.495915217890115px"/><path d="M284.73,187.33s-11.52,10.92-16,21.29" style="fill:none;stroke:#263238;stroke-linecap:round;stroke-linejoin:round;stroke-width:2.495915217890115px"/><path d="M258.41,207.58S253.75,229.7,231,225.42" style="fill:none;stroke:#263238;stroke-linecap:round;stroke-linejoin:round;stroke-width:2.495915217890115px"/><g style="clip-path:url(#clip-path-2)"><path d="M151,316s2.5-9.82-4-22.7-14.36-25-18.64-33.83c-3.16-6.52-4.59-15.42-5.12-19.61,1.21-1,10.54-8.48,12.32-12,1.9-3.72,1.26-9.88,4-13.27s6.44-7.93,3.26-8.64-5.13-.22-7.51,2.08a23.27,23.27,0,0,0-4.55,7.17,18.78,18.78,0,0,1-2.28,4.25,3.3,3.3,0,0,1-1.9,1.06l-2.18-40.26A2.42,2.42,0,0,0,122.5,178a4.3,4.3,0,0,0-1.7.05c-2.21.51-2.23,3.69-2.09,5.09s-.21,19.33-.21,19.33l-3-.57-7.77-23.85a2.91,2.91,0,0,0-3.43-2,2.83,2.83,0,0,0-2,3.46l6.31,24.3-2.06,1.65L92.59,181.93a2.45,2.45,0,0,0-3.82-.54,2.52,2.52,0,0,0-.48,2.89L98.9,206.82a.56.56,0,0,1-.84.69c-3-2.18-4.65-3.5-8.19-6.18-7.05-5.35-10.22-6.34-7.59-1.16.8,1.58,2.87,3.14,4.07,4.46l8.5,9.32s1.79,5,3,9.36a88.48,88.48,0,0,0,3.37,10.42l.94,2.3c1.21,13.3,2.35,59.88,10.76,74,8.53,14.27,17.28,22.28,28.15,21.06,8.15-.91,10.88-4.76,11.92-7.05A18.24,18.24,0,0,0,151,316Z" style="fill:#fff"/></g><path d="M151.5,315.5s2-9.3-4.5-22.18-14.36-25-18.64-33.83c-3.16-6.52-4.59-15.42-5.12-19.61,1.21-1,10.54-8.48,12.32-12,1.9-3.72,1.26-9.88,4-13.27s6.44-7.93,3.26-8.64-5.13-.22-7.51,2.08a23.27,23.27,0,0,0-4.55,7.17,18.78,18.78,0,0,1-2.28,4.25,3.3,3.3,0,0,1-1.9,1.06l-2.18-40.26A2.42,2.42,0,0,0,122.5,178a4.3,4.3,0,0,0-1.7.05c-2.21.51-2.23,3.69-2.09,5.09s-.21,19.33-.21,19.33l-3-.57-7.77-23.85a2.91,2.91,0,0,0-3.43-2,2.83,2.83,0,0,0-2,3.46l6.31,24.3-2.06,1.65L92.59,181.93a2.45,2.45,0,0,0-3.82-.54,2.52,2.52,0,0,0-.48,2.89L98.9,206.82a.56.56,0,0,1-.84.69c-2.12-1.53-3.55-2.63-5.44-4.09-.81-.61-7.11-6.27-8-6.72-2.6-1.3-4.09.8-2.31,3.47a46.26,46.26,0,0,0,4.07,4.46l8.5,9.32s1.79,5,3,9.36a88.48,88.48,0,0,0,3.37,10.42l.94,2.3c1.21,13.3,2.35,59.88,10.76,74,8.53,14.27,17.28,22.28,28.15,21.06,8.15-.91,11.38-5.26,12.42-7.55" style="fill:none;stroke:#263238;stroke-linecap:round;stroke-linejoin:round;stroke-width:2.5px"/><path d="M121.12,224.13l-8.3,3.75c-2.43,1.1-3.54,4-3,8.43" style="fill:none;stroke:#263238;stroke-linecap:round;stroke-linejoin:round;stroke-width:2.610285057186441px"/><path d="M239,218.39c-11.17,1.87-21.51-15.64-26.24-25.12,1.62-.92,2.87-1.75,2.87-2.81,0-1.53,1-21.34,1-21.34L249.17,158s4.07,22.35,6.61,26.41A5.7,5.7,0,0,0,260,187C257.87,195.4,251.29,216.35,239,218.39Z" style="fill:#fff;stroke:#263238;stroke-linecap:round;stroke-linejoin:round;stroke-width:2.495915217890115px"/><path d="M265.06,125.38s2.18-7.82,5.82-4.62,1.82,11.37-.37,16.34-9.09,4.62-9.09,4.62-11.63,38.73-30.91,39.09-26.18-22-29.82-28.78-3.63-7.82-3.63-7.82-9.82-6-11.64-14.57,7.27-7.46,7.27-7.46a26.81,26.81,0,0,1,2.91-18.83c5.46-9.95,46.18-11.73,57.09-7.11s16.37,8.53,16.73,13.5S265.06,125.38,265.06,125.38Z" style="fill:#fff;stroke:#263238;stroke-linecap:round;stroke-linejoin:round;stroke-width:2.525049611750318px"/><path d="M232.25,130.31s-1.42,7.82.71,10.66,6.75,2.13,5,6-7.1,5.33-7.1,5.33" style="fill:none;stroke:#263238;stroke-linecap:round;stroke-linejoin:round;stroke-width:2.495915217890115px"/><path d="M238.6,162.11s-13.54,5.26-20.68-6.4" style="fill:none;stroke:#263238;stroke-linecap:round;stroke-linejoin:round;stroke-width:2.6414609843173116px"/><path d="M219.54,119.86s-7.34-3-10.4,7.34" style="fill:none;stroke:#263238;stroke-linecap:round;stroke-linejoin:round;stroke-width:2.495915217890115px"/><path d="M243.69,120s7.34-3.06,10.4,7.34" style="fill:none;stroke:#263238;stroke-linecap:round;stroke-linejoin:round;stroke-width:2.495915217890115px"/><path d="M214.14,132c0,2.16,1,3.91,2.2,3.91s2.2-1.75,2.2-3.91-1-3.91-2.2-3.91S214.14,129.84,214.14,132Z" style="fill:#263238"/><ellipse cx="245.91" cy="131.77" rx="2.2" ry="3.91" style="fill:#263238"/><path d="M258.76,90.26l-58.9,8.26.86,13.93c8.64,3,15.55,3.47,24.61,2.37,16.09-1.67,16.18-7.89,21.74-10.11s12.54,7.65,12.54,7.65Z" style="fill:#92e3a9;opacity:0.3"/><path d="M189.57,105.56c-.76,6.93,8.48,26.2,8.48,26.2s3.86-9.25,3.86-13.87a37.54,37.54,0,0,0-3.07-11.57C199.6,104,190.33,98.62,189.57,105.56Z" style="fill:#263238;stroke:#263238;stroke-linecap:round;stroke-linejoin:round;stroke-width:2.4578668934846637px"/><path d="M271.17,94.36a18.55,18.55,0,0,0-11-16.08s-9-17-28.9-17-30.91,11.29-37.87,17-11-1.89-13-7.55-13.94,5.69-1,21.73,32.37,19.06,56.28,11.45,17-15.06,17-15.06-.51,14.88,4.48,17.71c3.65,2.1,5.14,13.94,5.71,20a34.63,34.63,0,0,1,.26,3.67S271.17,105.62,271.17,94.36Z" style="fill:#263238;stroke:#263238;stroke-linecap:round;stroke-linejoin:round;stroke-width:3.0926362810005537px"/><path d="M195.82,84.05C211.4,85.48,222,64.16,238.17,68.91a21.4,21.4,0,0,1,15.51,20.91s-6.32-10.11-20.27-4.56-27.91,12.26-41.69,8.56" style="fill:none;stroke:#fff;stroke-linecap:round;stroke-linejoin:round;stroke-width:1.6058361013195208px"/></g></svg>